<?xml version="1.0" encoding="utf-8"?>
<!-- Svg Vector Icons : http://www.onlinewebfonts.com/icon -->
<!DOCTYPE svg PUBLIC "-//W3C//DTD SVG 1.1//EN" "http://www.w3.org/Graphics/SVG/1.1/DTD/svg11.dtd">
<svg version="1.1" xmlns="http://www.w3.org/2000/svg" xmlns:xlink="http://www.w3.org/1999/xlink" width="400" x="0px" y="0px" viewBox="0 0 1000 1000" enable-background="new 0 0 1000 1000" xml:space="preserve">
<metadata> Svg Vector Icons : http://www.onlinewebfonts.com/icon </metadata>
<g><g transform="translate(0.000000,512.000000) scale(0.100000,-0.100000)"><path d="M186.1,4989.7c-78.5-36.4-84.2-88-84.2-656.4v-545.4H255h153.1v459.3v459.3H5001h4592.9v-459.3v-459.3h153.1H9900v545.4c0,576-5.7,620-89.9,658.3C9746.9,5020.3,245.4,5018.4,186.1,4989.7z"/><path d="M1173.6,4247.2v-153.1H5001h3827.4v153.1v153.1H5001H1173.6V4247.2z"/><path d="M186.1,3458.7c-23-9.6-51.7-40.2-63.2-65.1c-30.6-67-30.6-6799.3,0-6864.4c11.5-26.8,42.1-57.4,68.9-68.9c32.5-15.3,723.4-21,2426.6-21H5001v153.1v153.1H2704.5H408.1v3215v3215H5001h4592.9V1338.4V-498.8h153.1H9900v1923.2c0,1366.4-5.7,1934.7-21,1967.3c-11.5,26.8-42.1,57.4-68.9,68.9C9746.9,3489.4,245.4,3487.4,186.1,3458.7z"/><path d="M3316.9,1797.7v-459.3h459.3h459.3v459.3v459.3h-459.3h-459.3V1797.7z M3929.3,1797.7v-153.1h-153.1h-153.1v153.1v153.1h153.1h153.1V1797.7z"/><path d="M4541.7,1797.7v-459.3H5001h459.3v459.3v459.3H5001h-459.3V1797.7z M5154.1,1797.7v-153.1H5001h-153.1v153.1v153.1H5001h153.1V1797.7z"/><path d="M5766.4,1797.7v-459.3h459.3H6685v459.3v459.3h-459.3h-459.3V1797.7z M6378.8,1797.7v-153.1h-153.1h-153.1v153.1v153.1h153.1h153.1V1797.7z"/><path d="M6991.2,1797.7v-459.3h459.3h459.3v459.3v459.3h-459.3h-459.3V1797.7z M7603.6,1797.7v-153.1h-153.1h-153.1v153.1v153.1h153.1h153.1V1797.7z"/><path d="M8216,1797.7v-459.3h459.3h459.3v459.3v459.3h-459.3H8216V1797.7z M8828.3,1797.7v-153.1h-153.1h-153.1v153.1v153.1h153.1h153.1V1797.7z"/><path d="M1173.6,1797.7v-153.1h153.1h153.1v153.1v153.1h-153.1h-153.1V1797.7z"/><path d="M2398.3,1797.7v-153.1h153.1h153.1v153.1v153.1h-153.1h-153.1V1797.7z"/><path d="M867.4,572.9V113.6h459.3H1786v459.3v459.3h-459.3H867.4V572.9z M1479.8,572.9V419.8h-153.1h-153.1v153.1V726h153.1h153.1V572.9z"/><path d="M2092.1,572.9V113.6h459.3h459.3v459.3v459.3h-459.3h-459.3V572.9z M2704.5,572.9V419.8h-153.1h-153.1v153.1V726h153.1h153.1V572.9z"/><path d="M3316.9,572.9V113.6h459.3h459.3v459.3v459.3h-459.3h-459.3V572.9z M3929.3,572.9V419.8h-153.1h-153.1v153.1V726h153.1h153.1V572.9z"/><path d="M4541.7,572.9V113.6H5001h459.3v459.3v459.3H5001h-459.3V572.9z M5154.1,572.9V419.8H5001h-153.1v153.1V726H5001h153.1V572.9z"/><path d="M5766.4,572.9V113.6h459.3H6685v459.3v459.3h-459.3h-459.3V572.9z M6378.8,572.9V419.8h-153.1h-153.1v153.1V726h153.1h153.1V572.9z"/><path d="M6991.2,572.9V113.6h459.3h459.3v459.3v459.3h-459.3h-459.3V572.9z M7603.6,572.9V419.8h-153.1h-153.1v153.1V726h153.1h153.1V572.9z"/><path d="M8216,572.9V113.6h459.3h459.3v459.3v459.3h-459.3H8216V572.9z M8828.3,572.9V419.8h-153.1h-153.1v153.1V726h153.1h153.1V572.9z"/><path d="M867.4-651.9v-459.3h459.3H1786v459.3v459.3h-459.3H867.4V-651.9z M1479.8-651.9V-805h-153.1h-153.1v153.1v153.1h153.1h153.1V-651.9z"/><path d="M2092.1-651.9v-459.3h459.3h459.3v459.3v459.3h-459.3h-459.3V-651.9z M2704.5-651.9V-805h-153.1h-153.1v153.1v153.1h153.1h153.1V-651.9z"/><path d="M3316.9-651.9v-459.3h459.3h459.3v459.3v459.3h-459.3h-459.3V-651.9z M3929.3-651.9V-805h-153.1h-153.1v153.1v153.1h153.1h153.1V-651.9z"/><path d="M4541.7-651.9v-459.3H5001h459.3v459.3v459.3H5001h-459.3V-651.9z M5154.1-651.9V-805H5001h-153.1v153.1v153.1H5001h153.1V-651.9z"/><path d="M7393.1-204.1c-26.8-3.8-107.2-17.2-181.8-28.7c-679.4-109.1-1333.8-604.7-1663-1255.4c-164.6-329.2-227.7-606.6-227.7-1000.9c0-315.8,21-449.7,111-719.5c187.5-558.8,629.6-1062.1,1173.1-1335.8c327.2-164.6,635.3-231.5,1037.2-227.7c241.1,1.9,306.2,9.6,501.4,59.3c413.4,107.2,767.4,310,1069.7,614.3c310,310,507.1,654.5,614.3,1069.7c49.7,195.2,57.4,260.3,59.3,501.4c3.8,308.1-21,476.5-103.3,731c-112.9,348.3-296.6,643-570.3,916.6c-336.8,336.8-715.7,543.5-1173.1,641.1C7904-209.8,7488.7-186.8,7393.1-204.1z M8091.6-554.3c717.6-178,1266.9-731,1450.6-1456.3c61.2-243,59.3-725.3-3.8-964.5c-193.3-734.8-713.8-1255.4-1448.7-1448.6c-239.2-63.2-721.5-65.1-964.5-3.8c-729.1,183.7-1276.4,731-1460.1,1460.2c-59.3,233.5-59.3,723.4,0,956.8c202.8,801.8,830.5,1368.3,1661.1,1500.3C7463.9-489.2,7940.4-516,8091.6-554.3z"/><path d="M7848.5-2330.2l-551.1-551.1l-248.8,248.8l-248.8,248.8l-109.1-111l-111-109.1l306.2-306.2c166.5-166.5,329.2-313.8,357.9-327.2c40.2-17.2,67-17.2,107.2,0c28.7,11.5,329.1,296.6,664.1,633.4l612.4,612.4l-105.2,105.3c-57.4,57.4-109.1,105.3-114.8,105.3C8401.6-1780.9,8150.9-2027.8,7848.5-2330.2z"/><path d="M867.4-1876.6v-459.3h459.3H1786v459.3v459.3h-459.3H867.4V-1876.6z M1479.8-1876.6v-153.1h-153.1h-153.1v153.1v153.1h153.1h153.1V-1876.6z"/><path d="M2092.1-1876.6v-459.3h459.3h459.3v459.3v459.3h-459.3h-459.3V-1876.6z M2704.5-1876.6v-153.1h-153.1h-153.1v153.1v153.1h153.1h153.1V-1876.6z"/><path d="M3316.9-1876.6v-459.3h459.3h459.3v459.3v459.3h-459.3h-459.3V-1876.6z M3929.3-1876.6v-153.1h-153.1h-153.1v153.1v153.1h153.1h153.1V-1876.6z"/></g></g>
</svg>